<svg xmlns="http://www.w3.org/2000/svg" viewBox="0 0 269.104 55.328">
  <g style="line-height:1.25">
    <path style="-inkscape-font-specification:'Baloo Bold'" d="M259.608 38.109c0 1.112.342 1.903 1.026 2.374.727.47 1.733.706 3.016.706.642 0 1.305-.043 1.99-.128a13.75 13.75 0 0 0 1.796-.45c.385.47.705 1.006.962 1.605.3.556.45 1.24.45 2.053 0 1.625-.62 2.951-1.861 3.978-1.198 1.027-3.337 1.54-6.417 1.54-3.765 0-6.674-.856-8.727-2.567-2.01-1.71-3.015-4.491-3.015-8.341V11.416c.47-.129 1.133-.257 1.989-.385a15.04 15.04 0 0 1 2.823-.257c1.882 0 3.336.342 4.363 1.027 1.07.641 1.605 2.031 1.605 4.17v4.107h8.405c.257.47.492 1.07.706 1.797.257.685.385 1.455.385 2.31 0 1.497-.342 2.588-1.027 3.272-.641.642-1.518.963-2.63.963h-5.84zM230.396 8.978c0-1.626.535-2.995 1.604-4.107 1.112-1.112 2.566-1.668 4.363-1.668 1.797 0 3.23.556 4.3 1.668 1.112 1.112 1.668 2.481 1.668 4.107 0 1.625-.556 2.994-1.668 4.106-1.07 1.112-2.503 1.668-4.3 1.668-1.797 0-3.251-.556-4.363-1.668-1.07-1.112-1.604-2.48-1.604-4.106zm11.42 39.783c-.47.085-1.175.192-2.116.32-.898.171-1.818.257-2.76.257-.94 0-1.795-.064-2.566-.192-.727-.129-1.347-.385-1.86-.77-.513-.385-.92-.899-1.22-1.54-.257-.685-.385-1.562-.385-2.631V18.089c.47-.085 1.155-.192 2.054-.32.94-.171 1.882-.257 2.823-.257.941 0 1.775.064 2.502.192.77.129 1.412.385 1.925.77.513.385.898.92 1.155 1.604.3.642.45 1.498.45 2.567zm-48.51-30.672c.428-.128 1.091-.256 1.99-.385.94-.128 1.902-.192 2.887-.192.94 0 1.775.064 2.502.192.77.129 1.412.385 1.925.77.513.385.898.92 1.155 1.604.3.642.45 1.498.45 2.567V36.44c0 1.753.427 3.015 1.282 3.785.856.727 2.097 1.091 3.722 1.091.984 0 1.775-.085 2.374-.256.642-.171 1.134-.343 1.476-.514V18.09c.428-.128 1.091-.256 1.99-.385.94-.128 1.902-.192 2.887-.192.94 0 1.775.064 2.502.192.77.129 1.412.385 1.925.77.513.385.898.92 1.155 1.604.3.642.45 1.498.45 2.567V42.15c0 2.14-.899 3.744-2.696 4.813-1.497.941-3.293 1.647-5.39 2.117-2.053.513-4.3.77-6.737.77-2.31 0-4.45-.257-6.417-.77-1.925-.513-3.593-1.305-5.005-2.374-1.411-1.07-2.502-2.438-3.272-4.106-.77-1.711-1.155-3.765-1.155-6.16zm-13.75 7.187c-1.07 0-2.096.171-3.08.513a7.204 7.204 0 0 0-2.502 1.54c-.685.642-1.24 1.455-1.668 2.438-.428.984-.642 2.139-.642 3.465 0 2.653.749 4.642 2.246 5.968 1.54 1.326 3.4 1.989 5.582 1.989 1.283 0 2.396-.15 3.337-.45a20.33 20.33 0 0 0 2.502-.962c.856.6 1.498 1.263 1.925 1.99.428.684.642 1.518.642 2.502 0 1.753-.834 3.122-2.503 4.106-1.668.941-3.978 1.412-6.93 1.412-2.695 0-5.133-.385-7.314-1.155-2.182-.813-4.064-1.925-5.647-3.336-1.54-1.455-2.738-3.187-3.593-5.198-.856-2.01-1.284-4.235-1.284-6.673 0-2.823.45-5.283 1.348-7.38.94-2.139 2.203-3.892 3.786-5.26 1.583-1.37 3.4-2.396 5.454-3.08 2.096-.685 4.299-1.028 6.609-1.028 3.08 0 5.454.556 7.122 1.669 1.669 1.112 2.503 2.545 2.503 4.299 0 .813-.193 1.583-.578 2.31a8.208 8.208 0 0 1-1.347 1.797c-.727-.343-1.604-.664-2.631-.963-1.027-.342-2.14-.513-3.337-.513zm-23.23 14.245c0 3.25-1.22 5.796-3.658 7.635-2.439 1.84-6.032 2.76-10.78 2.76-1.797 0-3.465-.128-5.005-.385s-2.866-.642-3.978-1.155c-1.07-.557-1.926-1.241-2.567-2.054-.599-.813-.898-1.775-.898-2.887 0-1.027.214-1.882.64-2.567a6.364 6.364 0 0 1 1.54-1.797c1.242.685 2.653 1.305 4.236 1.861 1.625.513 3.486.77 5.583.77 1.326 0 2.33-.192 3.015-.577.727-.385 1.09-.899 1.09-1.54 0-.6-.256-1.07-.77-1.412-.512-.342-1.368-.62-2.565-.834l-1.925-.385c-3.722-.727-6.503-1.86-8.342-3.4-1.797-1.583-2.695-3.83-2.695-6.738 0-1.583.342-3.016 1.027-4.3.684-1.283 1.646-2.352 2.887-3.208 1.24-.855 2.717-1.518 4.428-1.989 1.753-.47 3.678-.706 5.775-.706 1.583 0 3.058.128 4.427.385 1.412.214 2.631.556 3.658 1.027 1.027.47 1.84 1.09 2.438 1.86.599.728.898 1.605.898 2.632 0 .983-.192 1.839-.577 2.566a5.415 5.415 0 0 1-1.348 1.733c-.342-.214-.855-.428-1.54-.642a15.474 15.474 0 0 0-2.246-.642 23.777 23.777 0 0 0-2.502-.513 14.527 14.527 0 0 0-2.246-.192c-1.411 0-2.502.171-3.272.513-.77.3-1.155.791-1.155 1.476 0 .47.214.856.64 1.155.429.3 1.242.577 2.44.834l1.989.449c4.107.941 7.015 2.246 8.726 3.914 1.754 1.625 2.63 3.743 2.63 6.353zM111.713 8.978c0-1.626.535-2.995 1.604-4.107 1.112-1.112 2.566-1.668 4.363-1.668 1.797 0 3.23.556 4.3 1.668 1.112 1.112 1.668 2.481 1.668 4.107 0 1.625-.556 2.994-1.67 4.106-1.068 1.112-2.501 1.668-4.298 1.668-1.797 0-3.251-.556-4.363-1.668-1.07-1.112-1.604-2.48-1.604-4.106zm11.42 39.783c-.47.085-1.175.192-2.116.32-.899.171-1.819.257-2.76.257-.94 0-1.796-.064-2.566-.192-.727-.129-1.347-.385-1.86-.77-.513-.385-.92-.899-1.22-1.54-.257-.685-.385-1.562-.385-2.631V18.089a59.39 59.39 0 0 1 2.053-.32 15.74 15.74 0 0 1 2.824-.257c.94 0 1.775.064 2.502.192.77.129 1.412.385 1.925.77.513.385.898.92 1.155 1.604.3.642.45 1.498.45 2.567zM74.252 7.053c.427-.129 1.112-.257 2.053-.385a16.09 16.09 0 0 1 2.887-.257c.941 0 1.776.064 2.503.192.77.129 1.412.385 1.925.77.513.385.898.92 1.155 1.605.257.641.385 1.497.385 2.566v6.288c1.07-.427 2.075-.727 3.016-.898a18.73 18.73 0 0 1 3.208-.257c2.053 0 4 .364 5.84 1.091a14.234 14.234 0 0 1 4.876 3.209c1.411 1.369 2.523 3.08 3.336 5.133.813 2.053 1.22 4.427 1.22 7.122 0 2.78-.428 5.219-1.284 7.315-.813 2.053-1.968 3.765-3.465 5.134-1.497 1.369-3.337 2.417-5.518 3.144-2.139.684-4.513 1.026-7.122 1.026-2.823 0-5.22-.342-7.187-1.026-1.968-.642-3.636-1.455-5.005-2.439-1.882-1.326-2.823-3.037-2.823-5.133zm15.015 34.2c1.967 0 3.486-.663 4.555-1.99 1.113-1.368 1.669-3.378 1.669-6.03 0-2.695-.556-4.706-1.67-6.032-1.111-1.327-2.608-1.99-4.49-1.99-.856 0-1.605.086-2.246.257-.599.171-1.262.428-1.99.77v13.988c.471.3 1.028.557 1.67.77.684.171 1.518.257 2.502.257zM39.386 0c-.654 0-1.32.068-1.985.205a9.843 9.843 0 0 0-6.675 4.948 9.84 9.84 0 0 0-8.085-1.912 9.843 9.843 0 0 0-6.676 4.948 9.836 9.836 0 0 0-8.083-1.912C2.545 7.375-.893 12.591.204 17.929a9.846 9.846 0 0 0 4.95 6.675A9.845 9.845 0 0 0 3.24 32.69a9.841 9.841 0 0 0 4.95 6.673 9.845 9.845 0 0 0-1.914 8.087c1.098 5.338 6.314 8.772 11.652 7.674a9.84 9.84 0 0 0 6.675-4.946 9.84 9.84 0 0 0 8.085 1.91 9.84 9.84 0 0 0 6.675-4.946 9.837 9.837 0 0 0 8.083 1.912c5.337-1.097 8.776-6.314 7.678-11.651a9.843 9.843 0 0 0-4.95-6.676 9.84 9.84 0 0 0 1.914-8.085 9.84 9.84 0 0 0-4.948-6.673 9.84 9.84 0 0 0 1.912-8.086c-.96-4.67-5.075-7.888-9.665-7.883zm-5.294 11.512a3.557 3.557 0 1 1-.208 7.112 3.557 3.557 0 0 1 .208-7.112zm-18.058 5.056a3.557 3.557 0 1 1-.208 7.112 3.557 3.557 0 0 1 .208-7.112zm11.49 7.494a3.557 3.557 0 1 1-.208 7.112 3.557 3.557 0 0 1 .207-7.112zm11.49 7.456a3.558 3.558 0 1 1-.21 7.112 3.558 3.558 0 0 1 .21-7.112zm-18.058 5.056a3.557 3.557 0 1 1-.21 7.112 3.557 3.557 0 0 1 .21-7.112z" font-weight="700" aria-label="biscuit" font-size="9.924" letter-spacing="0" word-spacing="0" font-family="Baloo" fill="#fff"/>
  </g>
</svg>
