<?xml version="1.0" standalone="no"?>
<!DOCTYPE svg PUBLIC "-//W3C//DTD SVG 20010904//EN"
 "http://www.w3.org/TR/2001/REC-SVG-20010904/DTD/svg10.dtd">
<svg version="1.0" xmlns="http://www.w3.org/2000/svg"
 width="700.000000pt" height="700.000000pt" viewBox="0 0 700.000000 700.000000"
 preserveAspectRatio="xMidYMid meet">
<metadata>
Created by potrace 1.11, written by Peter Selinger 2001-2013
</metadata>
<g transform="translate(0.000000,700.000000) scale(0.100000,-0.100000)"
fill="#000000" stroke="none">
<path d="M4858 6995 c-1 -1 -23 -5 -48 -8 -335 -40 -672 -253 -866 -547 l-57
-88 -84 55 c-140 91 -331 169 -462 188 -204 30 -366 24 -532 -19 -234 -61
-408 -162 -579 -335 -81 -83 -187 -219 -203 -263 -5 -14 -2 -16 -92 46 -193
131 -438 205 -680 204 -303 0 -574 -95 -797 -280 -202 -167 -351 -396 -413
-634 -36 -137 -44 -207 -40 -359 3 -146 16 -224 60 -363 79 -250 259 -488 488
-643 l96 -66 -35 -49 c-112 -156 -196 -372 -220 -564 -9 -67 -9 -251 -1 -305
24 -161 56 -265 122 -400 79 -160 202 -313 345 -430 30 -24 150 -103 165 -108
5 -2 -11 -35 -36 -73 -106 -158 -160 -291 -205 -499 -3 -16 -7 -102 -9 -190
-4 -220 25 -359 114 -550 172 -368 529 -635 936 -699 87 -14 340 -15 393 -2
32 8 51 13 104 25 75 17 205 67 277 107 87 48 174 105 184 121 4 7 13 13 18
13 22 0 192 186 250 273 34 51 64 91 68 90 3 -1 37 -22 76 -48 275 -185 618
-252 947 -184 140 28 316 105 448 193 72 48 290 255 290 275 0 5 6 16 14 24 8
7 29 38 47 68 18 30 34 56 36 58 1 2 34 -17 72 -43 216 -145 444 -214 701
-214 175 0 292 21 455 83 389 149 682 499 771 920 24 114 26 339 4 457 -47
253 -166 483 -342 660 -79 79 -114 108 -208 170 -41 28 -74 53 -73 57 1 3 22
37 48 76 81 120 161 306 180 414 2 14 9 55 15 91 19 110 17 295 -5 415 -14 74
-59 213 -95 292 -59 126 -142 244 -244 347 -112 112 -155 147 -243 196 -24 13
-43 28 -43 33 0 5 13 26 28 46 46 58 97 151 146 264 15 34 50 152 60 202 4 17
9 41 12 55 14 57 13 326 -2 408 -69 388 -310 719 -654 899 -77 41 -205 91
-250 99 -14 3 -32 7 -40 10 -42 15 -139 26 -267 29 -77 2 -143 2 -145 0z
m-423 -1471 c319 -80 424 -521 180 -759 -86 -84 -203 -126 -335 -119 -252 13
-416 177 -426 425 -10 245 140 436 363 465 20 2 38 6 39 7 8 7 125 -5 179 -19z
m-2271 -645 c79 -23 135 -59 189 -118 97 -107 135 -279 95 -431 -35 -138 -149
-264 -270 -301 -64 -19 -84 -22 -168 -21 -168 1 -298 70 -376 199 -45 76 -66
153 -66 245 1 324 277 522 596 427z m1431 -940 c156 -36 283 -172 314 -334 11
-56 7 -183 -7 -231 -60 -199 -224 -318 -438 -316 -197 2 -353 107 -417 281
-28 78 -30 243 -3 321 42 119 114 202 223 253 97 45 209 54 328 26z m1471
-945 c207 -62 328 -246 311 -469 -20 -242 -186 -402 -425 -410 -263 -8 -448
154 -468 409 -14 171 64 338 198 422 94 60 272 82 384 48z m-2291 -639 c136
-42 239 -139 286 -272 23 -64 31 -192 18 -254 -13 -56 -46 -142 -66 -168 -66
-87 -173 -160 -263 -177 -106 -20 -232 -6 -326 37 -63 28 -146 109 -179 176
-41 80 -53 134 -53 233 2 208 122 373 308 424 66 18 216 18 275 1z"/>
</g>
</svg>
