<svg xmlns="http://www.w3.org/2000/svg" viewBox="0 0 384.107 384.107">
  <path d="M384.107.04L325.76 59.987c-74.773-74.133-195.093-74.133-269.867 0-74.88 74.133-74.347 194.347.533 268.48 74.88 74.133 196.48 74.133 271.36 0 37.547-37.227 56.32-92.053 56.32-134.293h-42.773c.107 42.24-14.4 75.627-43.413 104.427-58.24 57.707-152.533 57.707-210.773 0-58.24-57.707-58.24-151.147 0-208.853 58.24-57.706 152.533-55.573 210.773 2.133l-58.56 60.16h144.747zM170.774 106.707v106.667l91.307 54.186 15.36-25.813-74.667-44.373v-90.667z" fill="#808080"/>
</svg>
