<?xml version="1.0" standalone="no"?>
<!DOCTYPE svg PUBLIC "-//W3C//DTD SVG 20010904//EN"
 "http://www.w3.org/TR/2001/REC-SVG-20010904/DTD/svg10.dtd">
<svg version="1.0" xmlns="http://www.w3.org/2000/svg"
 width="700.000000pt" height="700.000000pt" viewBox="0 0 700.000000 700.000000"
 preserveAspectRatio="xMidYMid meet">
<metadata>
Created by potrace 1.11, written by Peter Selinger 2001-2013
</metadata>
<g transform="translate(0.000000,700.000000) scale(0.100000,-0.100000)"
fill="#000000" stroke="none">
<path d="M3278 6995 c-2 -1 -39 -6 -83 -9 -116 -9 -167 -16 -285 -38 -58 -10
-118 -21 -135 -24 -202 -37 -526 -147 -770 -263 -506 -240 -986 -634 -1301
-1066 -16 -22 -32 -42 -35 -45 -7 -6 -139 -200 -139 -205 0 -1 -24 -42 -53
-91 -105 -176 -202 -383 -274 -584 -35 -99 -100 -313 -108 -359 -3 -14 -7 -36
-10 -48 -12 -54 -15 -71 -26 -128 -5 -33 -12 -71 -15 -85 -3 -14 -7 -45 -10
-70 -3 -25 -7 -56 -9 -70 -13 -73 -20 -218 -20 -415 0 -259 5 -314 50 -615 5
-33 40 -191 58 -260 95 -363 259 -728 470 -1045 61 -92 197 -273 252 -335 174
-198 356 -373 511 -490 32 -25 61 -48 64 -51 14 -15 237 -164 327 -217 98 -58
381 -202 397 -202 4 0 22 -7 39 -15 191 -88 591 -199 832 -230 22 -2 56 -7 75
-10 194 -27 656 -27 850 1 338 49 599 118 887 235 172 70 377 174 493 249 8 6
22 13 30 17 8 4 20 11 25 15 6 5 57 40 115 80 228 154 461 361 640 568 36 41
68 77 71 80 17 15 175 229 228 309 115 173 226 379 309 576 35 82 119 312 126
346 3 13 19 76 36 139 17 63 32 124 34 135 62 337 71 421 71 720 0 191 -11
409 -20 425 -2 3 -6 32 -10 64 -3 33 -8 62 -9 65 -2 3 -7 29 -10 56 -10 73
-51 249 -86 371 -116 398 -323 807 -574 1134 -283 368 -609 659 -1013 903 -90
55 -384 202 -453 227 -19 7 -48 18 -65 25 -129 56 -474 154 -632 179 -33 5
-116 19 -123 21 -3 1 -41 5 -85 10 -44 4 -89 10 -100 12 -25 4 -532 12 -537 8z"/>
</g>
</svg>
